<svg class="railroad-diagram" height="62" viewBox="0 0 722.5 62" width="722.5" xmlns="http://www.w3.org/2000/svg">
<g transform="translate(.5 .5)">
<style>/* <![CDATA[ */
    svg.railroad-diagram {
    }
    svg.railroad-diagram path {
        stroke-width:3;
        stroke:black;
        fill:white;
    }
    svg.railroad-diagram text {
        font:14px "Fira Mono", monospace;
        text-anchor:middle;
    }
    svg.railroad-diagram text.label{
        text-anchor:start;
    }
    svg.railroad-diagram text.comment{
        font:italic 12px "Fira Mono", monospace;
    }
    svg.railroad-diagram rect{
        stroke-width:2;
        stroke:black;
        fill:mistyrose;
    }
    
/* ]]> */
</style><g>
<path d="M20 21v20m10 -20v20m-10 -10h20"/></g><g>
<path d="M40 31h0.0"/><path d="M682.5 31h0.0"/><path d="M40.0 31h20"/><g>
<path d="M60.0 31h0.0"/><path d="M662.5 31h0.0"/><g class="terminal">
<path d="M60.0 31h0.0"/><path d="M88.5 31h0.0"/><rect height="22" rx="10" ry="10" width="28.5" x="60.0" y="20"/><text x="74.25" y="35">(</text></g><path d="M88.5 31h10"/><path d="M98.5 31h10"/><g class="non-terminal">
<path d="M108.5 31h0.0"/><path d="M230.5 31h0.0"/><rect height="22" width="122.0" x="108.5" y="20"/><text x="169.5" y="35">country-code</text></g><path d="M230.5 31h10"/><path d="M240.5 31h10"/><g class="terminal">
<path d="M250.5 31h0.0"/><path d="M279.0 31h0.0"/><rect height="22" rx="10" ry="10" width="28.5" x="250.5" y="20"/><text x="264.75" y="35">)</text></g><path d="M279.0 31h10"/><path d="M289.0 31h10"/><g class="non-terminal">
<path d="M299.0 31h0.0"/><path d="M429.5 31h0.0"/><rect height="22" width="130.5" x="299.0" y="20"/><text x="364.25" y="35">operator-code</text></g><path d="M429.5 31h10"/><path d="M439.5 31h10"/><g class="non-terminal">
<path d="M449.5 31h0.0"/><path d="M529.0 31h0.0"/><rect height="22" width="79.5" x="449.5" y="20"/><text x="489.25" y="35">triplex</text></g><path d="M529.0 31h10"/><path d="M539.0 31h10"/><g class="non-terminal">
<path d="M549.0 31h0.0"/><path d="M662.5 31h0.0"/><rect height="22" width="113.5" x="549.0" y="20"/><text x="605.75" y="35">four-digits</text></g></g><path d="M662.5 31h20"/></g><path d="M 682.5 31 h 20 m -10 -10 v 20 m 10 -20 v 20"/></g></svg>